<?xml version="1.0" encoding="UTF-8"?>
<!DOCTYPE svg PUBLIC "-//W3C//DTD SVG 1.1//EN" "http://www.w3.org/Graphics/SVG/1.1/DTD/svg11.dtd">
<!-- Creator: CorelDRAW 2021 (64 Bit) -->
<svg xmlns="http://www.w3.org/2000/svg" xml:space="preserve" width="30.1545mm" height="30.1545mm" version="1.1" style="shape-rendering:geometricPrecision; text-rendering:geometricPrecision; image-rendering:optimizeQuality; fill-rule:evenodd; clip-rule:evenodd"
viewBox="0 0 3547.49 3547.49"
 xmlns:xlink="http://www.w3.org/1999/xlink"
 xmlns:xodm="http://www.corel.com/coreldraw/odm/2003">
 <defs>
  <style type="text/css">
   <![CDATA[
    .fil0 {fill:white}
   ]]>
  </style>
 </defs>
 <g id="Camada_x0020_1">
  <metadata id="CorelCorpID_0Corel-Layer"/>
  <path class="fil0" d="M1773.74 0c979.61,0 1773.75,794.14 1773.75,1773.75 0,979.6 -794.14,1773.74 -1773.75,1773.74 -979.6,0 -1773.74,-794.14 -1773.74,-1773.74 0,-979.61 794.14,-1773.75 1773.74,-1773.75zm1416.23 2646.42l-112.1 -105.31 -15.68 -250.86 -219.51 -439.01 -7.36 -258.91 -189.7 -154.13 -281.57 71.14c0,0 -361.6,-151.16 -361.6,-168.95 0,-17.79 -35.58,-373.46 -35.58,-373.46l133.38 -109.67 293.43 0 145.23 171.91 370.5 50.39 328.97 -94.84c126.78,234.78 198.76,503.49 198.76,789.04 0,320.07 -90.49,618.97 -247.16,872.67zm-33.86 -1797.95l-101.47 71.03 -266.76 50.39 -210.44 -44.46 -118.56 -183.77 -411.99 5.93 -192.67 186.72 50.39 489.06 429.78 216.37 281.58 -82.99 106.7 100.77 0 248.97 225.26 435.71 14.38 271.93 143.86 155.47c-303.36,405.25 -787.27,667.52 -1332.44,667.52 -918.65,0 -1663.38,-744.73 -1663.38,-1663.38 0,-164.48 23.99,-323.33 68.46,-473.38 16.92,49.43 47.72,104.69 103.76,142.06 124.4,82.94 269.53,191.78 269.53,191.78 0,0 -98.47,31.09 -82.93,103.67 15.54,72.57 15.54,228.08 15.54,228.08l124.41 228.08 264.36 62.2 10.36 575.37c0,0 124.4,430.24 409.5,409.5l31.11 -368.03 238.44 -165.88 -5.19 -196.97 228.08 -202.16 46.65 -373.2 -228.06 -10.38 -233.26 -295.45 -378.39 5.18 -145.14 -259.17 -108.86 82.94 -31.09 -114.04 -93.3 -82.93 -25.92 -114.04 378.39 -41.47 305.83 -186.61 222.89 -321.37c0,0 229.81,5.14 217.7,-295.46l-413.13 -123.15c150.13,-44.53 309.07,-68.55 473.66,-68.55 211.37,0 413.49,39.52 599.5,111.42 -23.54,21.78 -46.47,44.7 -46.47,44.7l-293.63 6.73 -121.03 257.76 20.18 76.21 237.58 76.2 224.15 -56.03 477.41 127.76 125.71 -108.24c57.99,62.92 111.15,130.31 158.97,201.61zm-250.31 -293.3l-65.75 78.9 -437.07 -125.51 -244.31 49.3 -107.59 -31.38 65 -150.17 251.03 8.96 163.49 -93.15c137.22,70.25 263.33,159.09 375.2,263.04zm-1772.66 -316.9l165.4 84.53 305.83 41.46c0,0 5.19,88.13 -41.47,98.49 -46.66,10.36 -155.5,41.47 -155.5,41.47l-196.98 311 -274.72 171.05 -440.59 67.39 -5.19 228.08 114.03 145.14 -5.18 98.49 -243.63 -196.98 -89.54 -256.96c174.74,-374.61 484.89,-673.32 867.54,-833.15zm-533.77 1535.01l219.49 -219.49 105.82 184.22 411.55 11.75 164.62 286.12 199.89 0 -19.6 199.89 -235.17 246.93 0 192.05 -250.84 164.62 0 250.84c0,0 -125.43,-58.79 -172.47,-297.87l-7.84 -615.36 -301.8 -78.39 -105.82 -164.62 -7.84 -160.7z"/>
 </g>
</svg>
